<?xml version="1.0" standalone="no"?>
<!DOCTYPE svg PUBLIC "-//W3C//DTD SVG 20010904//EN"
 "http://www.w3.org/TR/2001/REC-SVG-20010904/DTD/svg10.dtd">
<svg version="1.0" xmlns="http://www.w3.org/2000/svg"
 width="1024.000000pt" height="1024.000000pt" viewBox="0 0 1024.000000 1024.000000"
 preserveAspectRatio="xMidYMid meet">
<metadata>
Created by potrace 1.11, written by Peter Selinger 2001-2013
</metadata>
<g transform="translate(0.000000,1024.000000) scale(0.100000,-0.100000)"
fill="#000000" stroke="none">
<path d="M3399 9595 c-3 -2 -27 -7 -54 -10 -114 -16 -269 -81 -380 -160 -95
-68 -223 -206 -273 -294 -8 -13 -22 -38 -32 -56 -20 -36 -74 -190 -86 -245 -4
-19 -9 -429 -11 -910 -2 -481 -5 -875 -6 -877 -2 -1 -257 -4 -567 -6 -311 -1
-576 -6 -589 -10 -106 -29 -179 -65 -246 -121 -64 -53 -979 -967 -1026 -1026
-32 -39 -77 -115 -86 -145 -44 -145 -42 -96 -42 -1022 l-1 -873 1280 0 1280 0
1 168 c1 216 2 230 31 294 30 64 75 110 143 146 l50 27 390 3 c336 2 398 0
445 -14 90 -27 145 -74 185 -159 30 -65 34 -97 35 -297 l0 -168 1280 0 1280 0
0 168 c1 199 5 231 34 297 29 64 77 111 146 144 l55 26 405 0 405 0 55 -26
c70 -34 117 -80 147 -147 30 -64 31 -74 32 -289 l1 -173 1280 0 1281 0 -3 893
-3 892 -24 70 c-45 133 -80 173 -609 703 -286 286 -526 518 -560 541 -33 22
-96 53 -139 68 l-78 28 -570 3 c-313 2 -571 4 -572 6 -1 1 -3 380 -4 842 -1
954 -1 956 -76 1134 -104 245 -330 453 -578 533 -140 46 -113 45 -1916 46
-938 0 -1708 -1 -1710 -4z m3001 -1915 l0 -640 -1280 0 -1280 0 0 640 0 640
1280 0 1280 0 0 -640z"/>
<path d="M1 2213 c0 -588 4 -1012 10 -1047 26 -158 138 -324 285 -421 53 -35
127 -71 167 -80 12 -3 42 -9 67 -14 29 -7 1697 -9 4620 -8 l4575 2 65 23 c199
72 352 225 422 422 l23 65 3 1023 3 1022 -1281 0 -1280 0 -1 -167 c-1 -217 -2
-232 -32 -295 -31 -67 -74 -110 -145 -145 l-57 -28 -410 0 -410 0 -50 27 c-67
35 -113 82 -141 143 -31 67 -32 81 -33 288 l-1 177 -1280 0 -1280 0 -1 -177
c-1 -210 -2 -222 -35 -290 -30 -63 -73 -106 -139 -141 l-50 -27 -415 0 -415 0
-50 27 c-89 49 -133 100 -158 186 -19 64 -17 29 -17 242 l0 180 -1280 0 -1280
0 1 -987z"/>
</g>
</svg>
