<?xml version="1.0" standalone="no"?>
<!DOCTYPE svg PUBLIC "-//W3C//DTD SVG 20010904//EN"
 "http://www.w3.org/TR/2001/REC-SVG-20010904/DTD/svg10.dtd">
<svg version="1.0" xmlns="http://www.w3.org/2000/svg"
 width="1024.000000pt" height="1024.000000pt" viewBox="0 0 1024.000000 1024.000000"
 preserveAspectRatio="xMidYMid meet">
<metadata>
Created by potrace 1.11, written by Peter Selinger 2001-2013
</metadata>
<g transform="translate(0.000000,1024.000000) scale(0.100000,-0.100000)"
fill="#000000" stroke="none">
<path d="M6947 9434 c-1 -1 -42 -4 -92 -7 -156 -10 -227 -21 -400 -62 -391
-94 -685 -237 -984 -480 -344 -279 -618 -672 -753 -1080 -36 -109 -72 -250
-92 -365 -14 -75 -19 -118 -32 -250 -5 -51 -4 -297 1 -355 10 -118 16 -168 19
-174 2 -3 7 -28 11 -56 8 -60 71 -309 85 -335 11 -20 177 149 -2305 -2345
-789 -793 -1353 -1367 -1387 -1413 -98 -130 -173 -309 -195 -467 -9 -63 -10
-264 -1 -330 57 -413 388 -776 798 -874 96 -23 157 -29 284 -26 230 4 404 60
596 193 42 29 710 689 1892 1871 1006 1004 1834 1827 1842 1829 8 2 52 -8 98
-22 46 -14 99 -28 118 -31 19 -3 43 -8 52 -11 29 -9 116 -24 233 -40 28 -4 59
-8 70 -10 28 -4 374 -4 410 0 17 2 55 6 85 10 51 6 122 17 195 31 120 23 318
84 445 137 439 184 799 475 1051 848 150 223 249 419 314 627 8 27 22 68 30
93 33 103 74 322 90 480 7 73 7 319 0 395 -17 180 -54 367 -82 422 -11 20 -36
51 -57 67 -34 28 -44 31 -111 31 -62 0 -78 -4 -109 -26 -30 -21 -579 -559
-1217 -1192 -62 -61 -95 -87 -107 -83 -28 8 -81 17 -177 31 -23 3 -52 7 -65
10 -13 3 -42 7 -65 10 -22 4 -119 19 -215 35 -96 16 -188 31 -205 33 -16 3
-46 8 -65 11 -19 3 -46 8 -60 10 -272 41 -272 41 -276 68 -1 7 -4 30 -8 51 -3
20 -8 54 -11 75 -3 20 -10 60 -15 87 -5 28 -12 68 -15 90 -3 22 -12 81 -21
130 -8 50 -17 104 -20 120 -3 17 -7 42 -9 56 -3 15 -7 44 -10 65 -2 22 -16
104 -29 184 -14 80 -28 168 -31 195 -4 28 -9 53 -12 57 -2 5 55 68 127 140
562 567 1128 1145 1149 1173 46 66 38 179 -18 238 -43 47 -120 72 -305 102
-118 19 -427 39 -439 29z m-4941 -7160 c72 -21 143 -69 200 -136 94 -110 109
-305 35 -444 -38 -72 -118 -144 -196 -176 -63 -26 -81 -30 -163 -29 -223 0
-393 171 -394 396 -1 180 101 326 272 386 58 20 181 22 246 3z"/>
</g>
</svg>
